<?xml version="1.0" encoding="utf-8"?>
<!-- Generator: Adobe Illustrator 26.4.1, SVG Export Plug-In . SVG Version: 6.00 Build 0)  -->
<svg version="1.1" id="Livello_1" xmlns="http://www.w3.org/2000/svg" xmlns:xlink="http://www.w3.org/1999/xlink" x="0px" y="0px"
	 viewBox="0 0 104 104" style="enable-background:new 0 0 104 104;" xml:space="preserve">
<style type="text/css">
	.st0{fill:#F18876;}
	.st1{fill:#FFFFFF;stroke:#FFFFFF;stroke-width:2;stroke-miterlimit:10;}
</style>
<g>
	<path class="st0" d="M82.8,54.5v-2.1c0-2-1.6-3.7-3.7-3.7H55.7c-2,0-3.7-1.7-3.7-3.7V21.4c0-2-1.6-3.7-3.7-3.7H24.8
		c-2,0-3.7,1.7-3.7,3.7v27.2v5.9c-2,0.5-3.4,2.3-3.4,4.5c0,2.1,1.4,3.9,3.4,4.5v12.3c0,2,1.6,3.7,3.7,3.7h2.6c0.8,0,1.7,0.3,2.3,0.9
		l2.7,2.7l2.5,2.6c0.8,0.8,2.1,0.8,3,0l2.6-2.6l2.7-2.7c0.6-0.6,1.4-0.9,2.3-0.9h33.6c2,0,3.7-1.7,3.7-3.7V63.4
		c2-0.5,3.5-2.3,3.5-4.5C86.3,56.8,84.8,55,82.8,54.5z M37.4,40.5c-2.6,0-4.6-2-4.6-4.7c0-2.5,2-4.7,4.6-4.7c2.5,0,4.6,2,4.6,4.7
		S39.9,40.5,37.4,40.5z"/>
	<path class="st0" d="M81.7,17.7H58c-0.6,0-1.1,0.5-1.1,1.1v23.6c0,0.6,0.5,1.1,1.1,1.1h23.6c0.6,0,1.1-0.5,1.1-1.1V18.9
		C82.8,18.3,82.3,17.7,81.7,17.7z M69.8,40.5c-2.5,0-4.6-2-4.6-4.6s2-4.6,4.6-4.6c2.6,0,4.6,2,4.6,4.6S72.3,40.5,69.8,40.5z"/>
	<path class="st1" d="M62.8,59.7c-0.4,0-0.9,0.2-0.9,0.5C61.3,64.2,57,67,52,67s-9.3-2.9-9.9-6.8c-0.1-0.3-0.5-0.6-0.9-0.5
		c-0.4,0-0.8,0.3-0.8,0.7c0.7,4.5,5.7,7.9,11.6,7.9s10.8-3.4,11.6-7.9C63.6,60.1,63.3,59.7,62.8,59.7z"/>
</g>
</svg>
